<?xml version="1.0" standalone="no"?>
<!DOCTYPE svg PUBLIC "-//W3C//DTD SVG 20010904//EN"
 "http://www.w3.org/TR/2001/REC-SVG-20010904/DTD/svg10.dtd">
<svg version="1.0" xmlns="http://www.w3.org/2000/svg"
 width="96.000000pt" height="96.000000pt" viewBox="0 0 96.000000 96.000000"
 preserveAspectRatio="xMidYMid meet">

<g transform="translate(0.000000,96.000000) scale(0.100000,-0.100000)"
fill="#000000" stroke="none">
<path d="M137 822 c-10 -10 -17 -23 -17 -29 0 -15 34 -43 52 -43 9 0 19 -7 22
-16 3 -9 6 -128 6 -265 l0 -248 -30 -16 c-35 -18 -41 -58 -11 -75 25 -13 197
-13 222 0 11 6 19 21 19 36 0 19 -8 28 -35 40 l-35 14 0 125 0 125 150 0 150
0 0 -130 c0 -106 -3 -130 -14 -130 -18 0 -46 -27 -46 -45 0 -35 29 -45 135
-45 81 0 107 3 119 16 28 28 19 53 -29 75 l-30 14 -3 257 -2 257 30 16 c35 18
41 58 11 75 -11 5 -61 10 -111 10 -103 0 -130 -9 -130 -46 0 -19 8 -28 35 -40
l35 -14 0 -95 0 -95 -150 0 -150 0 0 98 c0 90 2 98 22 107 36 17 45 41 24 64
-17 19 -31 21 -121 21 -86 0 -104 -3 -118 -18z m223 -27 c0 -8 -6 -15 -14 -15
-37 0 -46 -28 -46 -141 l0 -109 180 0 180 0 0 93 c0 118 -4 131 -46 151 -19 9
-32 21 -29 26 8 13 202 13 210 0 3 -5 -8 -16 -25 -25 l-30 -16 2 -277 3 -277
32 -15 c62 -29 41 -40 -72 -40 -87 0 -105 3 -105 15 0 8 6 15 14 15 8 0 22 7
30 16 13 12 16 41 16 155 l0 139 -180 0 -180 0 0 -131 c0 -72 4 -139 10 -149
5 -10 24 -23 41 -29 17 -6 28 -15 24 -21 -8 -13 -202 -13 -210 0 -3 5 8 16 25
25 l30 16 -2 277 -3 277 -32 15 c-62 29 -41 40 72 40 87 0 105 -3 105 -15z"/>
</g>
</svg>
